<svg width="500" height="500" xmlns="http://www.w3.org/2000/svg">
<rect width="500" height="500" fill="white" />
<line x1="250.000000" y1="500.000000" x2="250.000000" y2="400.000000" stroke="rgb(100,21,87)" stroke-width="10" />
<line x1="250.000000" y1="400.000000" x2="270.075175" y2="371.329678" stroke="rgb(93,46,214)" stroke-width="3" />
<line x1="270.075175" y1="371.329678" x2="281.586410" y2="367.139932" stroke="rgb(19,18,211)" stroke-width="1" />
<line x1="281.586410" y1="367.139932" x2="285.727817" y2="368.249618" stroke="rgb(44,200,178)" stroke-width="0" />
<line x1="285.727817" y1="368.249618" x2="281.586410" y2="367.139932" stroke="rgb(44,200,178)" stroke-width="0" />
<line x1="281.586410" y1="367.139932" x2="284.045619" y2="363.627817" stroke="rgb(36,168,128)" stroke-width="0" />
<line x1="284.045619" y1="363.627817" x2="281.586410" y2="367.139932" stroke="rgb(36,168,128)" stroke-width="0" />
<line x1="281.586410" y1="367.139932" x2="270.075175" y2="371.329678" stroke="rgb(36,168,128)" stroke-width="0" />
<line x1="270.075175" y1="371.329678" x2="270.075175" y2="359.079678" stroke="rgb(110,155,113)" stroke-width="1" />
<line x1="270.075175" y1="359.079678" x2="272.534384" y2="355.567564" stroke="rgb(224,113,90)" stroke-width="0" />
<line x1="272.534384" y1="355.567564" x2="270.075175" y2="359.079678" stroke="rgb(224,113,90)" stroke-width="0" />
<line x1="270.075175" y1="359.079678" x2="267.615966" y2="355.567564" stroke="rgb(31,164,103)" stroke-width="0" />
<line x1="267.615966" y1="355.567564" x2="270.075175" y2="359.079678" stroke="rgb(31,164,103)" stroke-width="0" />
<line x1="270.075175" y1="359.079678" x2="270.075175" y2="371.329678" stroke="rgb(31,164,103)" stroke-width="0" />
<line x1="270.075175" y1="371.329678" x2="250.000000" y2="400.000000" stroke="rgb(31,164,103)" stroke-width="0" />
<line x1="250.000000" y1="400.000000" x2="229.924825" y2="371.329678" stroke="rgb(77,222,224)" stroke-width="3" />
<line x1="229.924825" y1="371.329678" x2="229.924825" y2="359.079678" stroke="rgb(61,160,233)" stroke-width="1" />
<line x1="229.924825" y1="359.079678" x2="232.384034" y2="355.567564" stroke="rgb(185,93,10)" stroke-width="0" />
<line x1="232.384034" y1="355.567564" x2="229.924825" y2="359.079678" stroke="rgb(185,93,10)" stroke-width="0" />
<line x1="229.924825" y1="359.079678" x2="227.465616" y2="355.567564" stroke="rgb(247,212,85)" stroke-width="0" />
<line x1="227.465616" y1="355.567564" x2="229.924825" y2="359.079678" stroke="rgb(247,212,85)" stroke-width="0" />
<line x1="229.924825" y1="359.079678" x2="229.924825" y2="371.329678" stroke="rgb(247,212,85)" stroke-width="0" />
<line x1="229.924825" y1="371.329678" x2="218.413590" y2="367.139932" stroke="rgb(92,126,195)" stroke-width="1" />
<line x1="218.413590" y1="367.139932" x2="215.954381" y2="363.627817" stroke="rgb(95,68,64)" stroke-width="0" />
<line x1="215.954381" y1="363.627817" x2="218.413590" y2="367.139932" stroke="rgb(95,68,64)" stroke-width="0" />
<line x1="218.413590" y1="367.139932" x2="214.272183" y2="368.249618" stroke="rgb(82,33,123)" stroke-width="0" />
<line x1="214.272183" y1="368.249618" x2="218.413590" y2="367.139932" stroke="rgb(82,33,123)" stroke-width="0" />
<line x1="218.413590" y1="367.139932" x2="229.924825" y2="371.329678" stroke="rgb(82,33,123)" stroke-width="0" />
<line x1="229.924825" y1="371.329678" x2="250.000000" y2="400.000000" stroke="rgb(82,33,123)" stroke-width="0" />
<line x1="250.000000" y1="400.000000" x2="250.000000" y2="500.000000" stroke="rgb(82,33,123)" stroke-width="0" />
</svg>